<svg xmlns="http://www.w3.org/2000/svg" viewBox="0 0 32 32" role="img" aria-labelledby="himsFleetLogoTitle">
  <title id="himsFleetLogoTitle">HIMS Fleet — Tala Hospital</title>
  <!--
    Full-color brand mark
    Mint primary + dark healthcare blue figure
    Flat geometry only
  -->
  <!-- Medical cross (mint) -->
  <path
    fill="#00A86B"
    d="M13.25 3.5h5.5c.97 0 1.75.78 1.75 1.75v5.75h5.75c.97 0 1.75.78 1.75 1.75v5.5c0 .97-.78 1.75-1.75 1.75H20.5v5.75c0 .97-.78 1.75-1.75 1.75h-5.5c-.97 0-1.75-.78-1.75-1.75V20h-5.75c-.97 0-1.75-.78-1.75-1.75v-5.5c0-.97.78-1.75 1.75-1.75H11.5V5.25c0-.97.78-1.75 1.75-1.75z"
  />
  <!-- Human figure (dark healthcare blue) -->
  <circle cx="16" cy="10.1" r="1.85" fill="#0C2D3A"/>
  <path
    fill="#0C2D3A"
    d="M12.9 14.1c0-.72.58-1.3 1.3-1.3h3.6c.72 0 1.3.58 1.3 1.3v2.55c0 .2-.08.4-.22.54l-1.48 1.48c-.14.14-.34.22-.54.22h-1.72c-.2 0-.4-.08-.54-.22l-1.48-1.48a.77.77 0 0 1-.22-.54V14.1z"
  />
  <!-- Healing leaf (mint) -->
  <path
    fill="#00A86B"
    d="M24.1 7.2c2.9.2 5.1 2.2 5.5 4.9-.4.15-1.05.3-1.85.35-1.95.12-3.55-.95-4.15-2.55-.35-.9-.3-1.85.05-2.7z"
  />
  <path
    stroke="#0C2D3A"
    stroke-width="1.1"
    stroke-linecap="round"
    d="M24.35 8.1c.55 1.15 1.55 2.35 3.35 2.85"
  />
</svg>
